<svg xmlns="http://www.w3.org/2000/svg" xmlns:xlink="http://www.w3.org/1999/xlink" width="500" zoomAndPan="magnify" viewBox="0 0 375 374.999991" height="500" preserveAspectRatio="xMidYMid meet" version="1.0"><defs><g/><clipPath id="1ccf5e538d"><path d="M 297 232 L 300 232 L 300 233.644531 L 297 233.644531 Z M 297 232 " clip-rule="nonzero"/></clipPath><clipPath id="e099a40cca"><path d="M 292.410156 221.667969 L 305.050781 221.667969 L 305.050781 233.644531 L 292.410156 233.644531 Z M 292.410156 221.667969 " clip-rule="nonzero"/></clipPath><clipPath id="0e4b50ee8f"><path d="M 296 222 L 305.050781 222 L 305.050781 233.644531 L 296 233.644531 Z M 296 222 " clip-rule="nonzero"/></clipPath><clipPath id="77237a897b"><path d="M 280.605469 212.539062 L 322.523438 212.539062 L 322.523438 249.796875 L 280.605469 249.796875 Z M 280.605469 212.539062 " clip-rule="nonzero"/></clipPath></defs><path fill="#ffffff" d="M 54.707031 167.210938 C 55.421875 165.535156 56.257812 163.917969 57.207031 162.363281 C 58.160156 160.808594 59.21875 159.332031 60.390625 157.933594 C 61.558594 156.535156 62.820312 155.226562 64.179688 154.011719 C 65.539062 152.796875 66.980469 151.6875 68.5 150.683594 C 70.023438 149.679688 71.609375 148.792969 73.261719 148.019531 C 74.910156 147.246094 76.609375 146.601562 78.355469 146.078125 C 80.101562 145.554688 81.878906 145.160156 83.679688 144.894531 C 85.484375 144.632812 87.296875 144.5 89.121094 144.503906 L 136.390625 144.503906 C 135.171875 142.902344 133.878906 141.363281 132.511719 139.886719 C 131.144531 138.410156 129.710938 137 128.207031 135.660156 C 126.707031 134.324219 125.144531 133.058594 123.519531 131.871094 C 121.894531 130.679688 120.21875 129.570312 118.488281 128.542969 C 116.761719 127.515625 114.984375 126.570312 113.164062 125.710938 C 111.34375 124.855469 109.488281 124.085938 107.59375 123.402344 C 105.699219 122.722656 103.777344 122.136719 101.828125 121.640625 C 99.878906 121.144531 97.90625 120.742188 95.917969 120.433594 C 93.929688 120.128906 91.929688 119.917969 89.921875 119.800781 C 87.914062 119.683594 85.902344 119.664062 83.890625 119.742188 C 81.882812 119.820312 79.878906 119.992188 77.882812 120.261719 C 75.890625 120.53125 73.914062 120.894531 71.953125 121.355469 C 69.992188 121.8125 68.0625 122.363281 66.15625 123.007812 C 64.246094 123.652344 62.375 124.386719 60.539062 125.210938 C 58.703125 126.035156 56.910156 126.945312 55.164062 127.9375 C 53.414062 128.933594 51.714844 130.011719 50.070312 131.167969 C 48.425781 132.328125 46.839844 133.5625 45.3125 134.871094 C 43.785156 136.183594 42.320312 137.5625 40.925781 139.011719 C 39.53125 140.464844 38.210938 141.976562 36.960938 143.554688 C 35.710938 145.132812 34.539062 146.765625 33.445312 148.453125 C 32.351562 150.144531 31.339844 151.882812 30.414062 153.667969 C 29.488281 155.457031 28.648438 157.28125 27.898438 159.148438 C 27.144531 161.015625 26.484375 162.914062 25.917969 164.84375 C 25.347656 166.773438 24.871094 168.726562 24.488281 170.703125 C 24.105469 172.679688 23.820312 174.667969 23.628906 176.671875 C 23.4375 178.675781 23.339844 180.683594 23.34375 182.695312 C 23.34375 184.707031 23.441406 186.714844 23.632812 188.71875 C 23.828125 190.722656 24.117188 192.710938 24.5 194.6875 C 24.886719 196.660156 25.363281 198.613281 25.933594 200.542969 C 26.507812 202.472656 27.167969 204.371094 27.921875 206.238281 C 28.675781 208.101562 29.515625 209.929688 30.445312 211.714844 C 31.375 213.5 32.386719 215.238281 33.480469 216.925781 Z M 54.707031 167.210938 " fill-opacity="1" fill-rule="nonzero"/><path fill="#ffffff" d="M 126.191406 168.695312 L 87.816406 168.695312 C 86.714844 168.695312 85.632812 168.851562 84.574219 169.167969 C 83.519531 169.488281 82.527344 169.949219 81.609375 170.558594 C 80.6875 171.164062 79.871094 171.894531 79.164062 172.742188 C 78.457031 173.589844 77.886719 174.519531 77.453125 175.535156 L 72.355469 187.507812 L 134.039062 187.507812 C 133.464844 188.84375 132.800781 190.136719 132.039062 191.375 C 131.28125 192.617188 130.433594 193.796875 129.503906 194.914062 C 128.570312 196.03125 127.5625 197.074219 126.476562 198.046875 C 125.390625 199.015625 124.242188 199.902344 123.027344 200.703125 C 121.8125 201.507812 120.546875 202.214844 119.226562 202.832031 C 117.910156 203.449219 116.554688 203.96875 115.160156 204.386719 C 113.765625 204.804688 112.347656 205.121094 110.910156 205.332031 C 109.46875 205.542969 108.023438 205.648438 106.566406 205.648438 L 72.609375 205.648438 C 71.421875 205.648438 70.257812 205.820312 69.121094 206.164062 C 67.980469 206.503906 66.914062 207.003906 65.921875 207.660156 C 64.929688 208.3125 64.054688 209.097656 63.292969 210.011719 C 62.53125 210.921875 61.917969 211.925781 61.449219 213.019531 L 51.90625 235.386719 C 53.273438 236.277344 54.675781 237.113281 56.109375 237.894531 C 57.542969 238.679688 59.003906 239.402344 60.492188 240.074219 C 61.980469 240.742188 63.496094 241.351562 65.03125 241.902344 C 66.566406 242.453125 68.125 242.945312 69.699219 243.375 C 71.273438 243.804688 72.863281 244.171875 74.46875 244.480469 C 76.070312 244.785156 77.683594 245.03125 79.304688 245.210938 C 80.929688 245.390625 82.554688 245.507812 84.1875 245.5625 C 85.820312 245.617188 87.449219 245.609375 89.082031 245.535156 C 90.714844 245.464844 92.339844 245.328125 93.960938 245.128906 C 95.578125 244.929688 97.191406 244.671875 98.789062 244.347656 C 100.390625 244.023438 101.976562 243.636719 103.546875 243.1875 C 105.117188 242.742188 106.667969 242.234375 108.199219 241.667969 C 109.726562 241.097656 111.234375 240.472656 112.714844 239.785156 C 114.199219 239.101562 115.652344 238.359375 117.074219 237.5625 C 118.5 236.765625 119.890625 235.914062 121.25 235.007812 C 122.609375 234.101562 123.929688 233.140625 125.210938 232.132812 C 126.496094 231.125 127.738281 230.066406 128.941406 228.960938 C 130.140625 227.855469 131.296875 226.707031 132.410156 225.511719 C 133.519531 224.3125 134.585938 223.078125 135.601562 221.800781 C 136.617188 220.519531 137.582031 219.207031 138.496094 217.851562 C 139.40625 216.5 140.265625 215.113281 141.074219 213.691406 C 141.878906 212.273438 142.628906 210.824219 143.320312 209.34375 C 144.011719 207.867188 144.648438 206.363281 145.222656 204.835938 C 145.800781 203.308594 146.316406 201.757812 146.769531 200.191406 C 147.226562 198.625 147.621094 197.039062 147.953125 195.441406 C 148.285156 193.84375 148.554688 192.234375 148.761719 190.617188 C 148.96875 188.996094 149.113281 187.371094 149.195312 185.742188 C 149.277344 184.109375 149.292969 182.480469 149.25 180.847656 C 149.203125 179.214844 149.09375 177.585938 148.921875 175.964844 C 148.75 174.339844 148.511719 172.726562 148.214844 171.121094 C 147.917969 169.515625 147.558594 167.921875 147.136719 166.347656 C 146.714844 164.769531 146.230469 163.210938 145.6875 161.671875 C 142.949219 163.941406 139.902344 165.683594 136.554688 166.890625 C 133.207031 168.09375 129.75 168.695312 126.191406 168.695312 Z M 126.191406 168.695312 " fill-opacity="1" fill-rule="nonzero"/><path fill="#006838" d="M 54.707031 167.210938 C 55.421875 165.535156 56.257812 163.917969 57.207031 162.363281 C 58.160156 160.808594 59.21875 159.332031 60.390625 157.933594 C 61.558594 156.535156 62.820312 155.226562 64.179688 154.011719 C 65.539062 152.796875 66.980469 151.6875 68.5 150.683594 C 70.023438 149.679688 71.609375 148.792969 73.261719 148.019531 C 74.910156 147.246094 76.609375 146.601562 78.355469 146.078125 C 80.101562 145.554688 81.878906 145.160156 83.679688 144.894531 C 85.484375 144.632812 87.296875 144.5 89.121094 144.503906 L 136.382812 144.503906 C 135.164062 142.902344 133.871094 141.363281 132.503906 139.886719 C 131.136719 138.410156 129.703125 137.003906 128.199219 135.664062 C 126.699219 134.328125 125.136719 133.0625 123.511719 131.875 C 121.890625 130.683594 120.214844 129.578125 118.484375 128.546875 C 116.753906 127.519531 114.980469 126.578125 113.160156 125.71875 C 111.339844 124.859375 109.484375 124.09375 107.589844 123.410156 C 105.695312 122.730469 103.773438 122.144531 101.824219 121.648438 C 99.875 121.152344 97.90625 120.75 95.917969 120.445312 C 93.929688 120.136719 91.929688 119.925781 89.921875 119.8125 C 87.914062 119.695312 85.902344 119.675781 83.894531 119.753906 C 81.882812 119.832031 79.878906 120.003906 77.886719 120.273438 C 75.894531 120.542969 73.917969 120.90625 71.957031 121.363281 C 70 121.824219 68.066406 122.375 66.160156 123.019531 C 64.253906 123.664062 62.382812 124.398438 60.546875 125.21875 C 58.710938 126.042969 56.917969 126.953125 55.171875 127.949219 C 53.421875 128.941406 51.726562 130.019531 50.078125 131.175781 C 48.433594 132.335938 46.847656 133.570312 45.320312 134.878906 C 43.792969 136.1875 42.332031 137.570312 40.9375 139.019531 C 39.542969 140.46875 38.222656 141.980469 36.972656 143.558594 C 35.722656 145.136719 34.550781 146.769531 33.457031 148.457031 C 32.363281 150.148438 31.355469 151.882812 30.429688 153.671875 C 29.5 155.457031 28.664062 157.28125 27.910156 159.148438 C 27.160156 161.015625 26.5 162.914062 25.929688 164.84375 C 25.359375 166.773438 24.882812 168.722656 24.5 170.699219 C 24.121094 172.675781 23.832031 174.664062 23.640625 176.667969 C 23.449219 178.667969 23.351562 180.675781 23.355469 182.6875 C 23.355469 184.699219 23.453125 186.707031 23.644531 188.710938 C 23.839844 190.714844 24.128906 192.703125 24.511719 194.675781 C 24.894531 196.652344 25.371094 198.605469 25.945312 200.535156 C 26.515625 202.460938 27.175781 204.359375 27.929688 206.226562 C 28.683594 208.089844 29.523438 209.917969 30.449219 211.703125 C 31.378906 213.488281 32.390625 215.222656 33.484375 216.914062 Z M 54.707031 167.210938 " fill-opacity="1" fill-rule="nonzero"/><path fill="#009f56" d="M 126.191406 168.695312 L 87.816406 168.695312 C 86.714844 168.695312 85.632812 168.851562 84.574219 169.167969 C 83.519531 169.488281 82.527344 169.949219 81.609375 170.558594 C 80.6875 171.164062 79.871094 171.894531 79.164062 172.742188 C 78.457031 173.589844 77.886719 174.519531 77.453125 175.535156 L 72.355469 187.507812 L 82.382812 187.507812 L 84.128906 183.417969 C 84.5625 182.40625 85.132812 181.472656 85.839844 180.625 C 86.546875 179.777344 87.359375 179.050781 88.28125 178.441406 C 89.203125 177.832031 90.191406 177.371094 91.25 177.050781 C 92.308594 176.734375 93.386719 176.574219 94.492188 176.574219 L 124.589844 176.574219 C 137.171875 176.738281 148.667969 166.667969 151.601562 155.121094 C 150.90625 156.160156 150.152344 157.15625 149.332031 158.101562 C 148.515625 159.050781 147.644531 159.945312 146.714844 160.785156 C 145.789062 161.625 144.8125 162.40625 143.789062 163.125 C 142.765625 163.847656 141.703125 164.503906 140.597656 165.09375 C 139.496094 165.683594 138.359375 166.203125 137.191406 166.652344 C 136.023438 167.101562 134.832031 167.480469 133.617188 167.78125 C 132.402344 168.085938 131.175781 168.3125 129.933594 168.464844 C 128.691406 168.617188 127.441406 168.695312 126.191406 168.695312 Z M 126.191406 168.695312 " fill-opacity="1" fill-rule="nonzero"/><path fill="#009f56" d="M 106.566406 205.648438 L 72.609375 205.648438 C 71.421875 205.648438 70.257812 205.820312 69.121094 206.164062 C 67.980469 206.503906 66.914062 207.003906 65.921875 207.660156 C 64.929688 208.3125 64.054688 209.097656 63.292969 210.011719 C 62.53125 210.921875 61.917969 211.925781 61.449219 213.019531 L 47.488281 245.734375 C 52.585938 245.789062 58.585938 242.59375 60 239.863281 L 68.097656 220.902344 C 68.566406 219.808594 69.179688 218.804688 69.941406 217.894531 C 70.703125 216.980469 71.582031 216.195312 72.574219 215.542969 C 73.566406 214.886719 74.628906 214.386719 75.769531 214.046875 C 76.90625 213.703125 78.070312 213.535156 79.261719 213.535156 L 108.488281 213.535156 C 120.449219 213.535156 134.039062 202.738281 134.039062 187.507812 C 133.464844 188.84375 132.800781 190.136719 132.039062 191.375 C 131.28125 192.617188 130.433594 193.796875 129.503906 194.914062 C 128.570312 196.03125 127.5625 197.074219 126.476562 198.046875 C 125.390625 199.015625 124.242188 199.902344 123.027344 200.703125 C 121.8125 201.507812 120.546875 202.214844 119.226562 202.832031 C 117.910156 203.449219 116.554688 203.96875 115.160156 204.386719 C 113.765625 204.804688 112.347656 205.121094 110.910156 205.332031 C 109.46875 205.542969 108.023438 205.648438 106.566406 205.648438 Z M 106.566406 205.648438 " fill-opacity="1" fill-rule="nonzero"/><g fill="#006838" fill-opacity="1"><g transform="translate(69.57545, 245.015081)"><g><path d="M 14.328125 -13.21875 C 14.160156 -12.25 14.039062 -11.328125 13.96875 -10.453125 C 13.90625 -9.578125 13.875 -8.789062 13.875 -8.09375 C 13.875 -7.695312 13.894531 -7.253906 13.9375 -6.765625 C 13.976562 -6.285156 14.078125 -5.835938 14.234375 -5.421875 C 14.390625 -5.003906 14.609375 -4.648438 14.890625 -4.359375 C 15.171875 -4.078125 15.578125 -3.9375 16.109375 -3.9375 C 16.503906 -3.9375 16.953125 -4.066406 17.453125 -4.328125 C 17.960938 -4.597656 18.46875 -4.972656 18.96875 -5.453125 C 19.46875 -5.941406 19.945312 -6.535156 20.40625 -7.234375 C 20.875 -7.929688 21.238281 -8.71875 21.5 -9.59375 L 32.28125 -9.59375 L 30.578125 -2.5625 C 29.703125 -1.988281 28.691406 -1.503906 27.546875 -1.109375 C 26.410156 -0.722656 25.207031 -0.40625 23.9375 -0.15625 C 22.664062 0.0820312 21.367188 0.253906 20.046875 0.359375 C 18.734375 0.472656 17.488281 0.53125 16.3125 0.53125 C 14.113281 0.53125 12.070312 0.332031 10.1875 -0.0625 C 8.300781 -0.457031 6.65625 -1.132812 5.25 -2.09375 C 3.851562 -3.0625 2.75 -4.34375 1.9375 -5.9375 C 1.125 -7.539062 0.71875 -9.53125 0.71875 -11.90625 C 0.71875 -14.050781 1.054688 -16.148438 1.734375 -18.203125 C 2.421875 -20.265625 3.5625 -22.097656 5.15625 -23.703125 C 6.757812 -25.304688 8.910156 -26.585938 11.609375 -27.546875 C 14.304688 -28.515625 17.671875 -29 21.703125 -29 C 26.078125 -29 29.367188 -28.316406 31.578125 -26.953125 C 33.796875 -25.597656 34.90625 -23.472656 34.90625 -20.578125 C 34.90625 -19.390625 34.726562 -18.101562 34.375 -16.71875 C 34.03125 -15.34375 33.507812 -14.175781 32.8125 -13.21875 Z M 23.078125 -21.046875 C 23.078125 -22.398438 22.859375 -23.316406 22.421875 -23.796875 C 21.984375 -24.285156 21.457031 -24.53125 20.84375 -24.53125 C 20.144531 -24.53125 19.5 -24.296875 18.90625 -23.828125 C 18.3125 -23.367188 17.769531 -22.753906 17.28125 -21.984375 C 16.800781 -21.222656 16.363281 -20.347656 15.96875 -19.359375 C 15.582031 -18.378906 15.253906 -17.335938 14.984375 -16.234375 L 22.484375 -16.234375 C 22.578125 -16.765625 22.664062 -17.316406 22.75 -17.890625 C 22.832031 -18.367188 22.90625 -18.890625 22.96875 -19.453125 C 23.039062 -20.023438 23.078125 -20.554688 23.078125 -21.046875 Z M 23.078125 -21.046875 "/></g></g></g><g fill="#006838" fill-opacity="1"><g transform="translate(105.539226, 245.015081)"><g><path d="M 5.328125 -28.265625 L 16.046875 -28.265625 L 17.03125 -23.34375 L 17.484375 -23.34375 C 18.492188 -24.914062 19.785156 -26.25 21.359375 -27.34375 C 22.941406 -28.445312 25.023438 -29 27.609375 -29 C 27.785156 -29 28.0625 -28.988281 28.4375 -28.96875 C 28.8125 -28.945312 29.226562 -28.878906 29.6875 -28.765625 C 30.144531 -28.648438 30.625 -28.492188 31.125 -28.296875 C 31.632812 -28.109375 32.128906 -27.835938 32.609375 -27.484375 L 29.71875 -13.9375 L 22.546875 -13.9375 C 22.460938 -16.65625 22.222656 -18.550781 21.828125 -19.625 C 21.429688 -20.695312 20.796875 -21.234375 19.921875 -21.234375 C 19.484375 -21.234375 19.007812 -21.132812 18.5 -20.9375 C 18 -20.738281 17.488281 -20.3125 16.96875 -19.65625 L 12.75 0 L -0.65625 0 Z M 5.328125 -28.265625 "/></g></g></g><g fill="#006838" fill-opacity="1"><g transform="translate(137.295175, 245.015081)"><g><path d="M 17.625 -24.0625 C 18.539062 -24.9375 19.570312 -25.75 20.71875 -26.5 C 21.71875 -27.113281 22.921875 -27.679688 24.328125 -28.203125 C 25.734375 -28.734375 27.3125 -29 29.0625 -29 C 31.164062 -29 32.734375 -28.515625 33.765625 -27.546875 C 34.796875 -26.585938 35.375 -25.40625 35.5 -24 L 35.90625 -24 C 36.90625 -24.914062 38 -25.75 39.1875 -26.5 C 40.195312 -27.113281 41.378906 -27.679688 42.734375 -28.203125 C 44.097656 -28.734375 45.546875 -29 47.078125 -29 C 49.359375 -29 51.207031 -28.375 52.625 -27.125 C 54.050781 -25.875 54.765625 -24.265625 54.765625 -22.296875 C 54.765625 -21.285156 54.585938 -19.945312 54.234375 -18.28125 C 53.890625 -16.613281 53.5 -14.796875 53.0625 -12.828125 L 50.296875 0 L 37.34375 0 L 40.890625 -17.15625 C 41.023438 -17.8125 41.15625 -18.445312 41.28125 -19.0625 C 41.414062 -19.675781 41.484375 -20.179688 41.484375 -20.578125 C 41.484375 -21.191406 41.304688 -21.707031 40.953125 -22.125 C 40.609375 -22.539062 40.109375 -22.75 39.453125 -22.75 C 38.617188 -22.75 37.835938 -22.453125 37.109375 -21.859375 C 36.390625 -21.265625 35.832031 -20.769531 35.4375 -20.375 L 31.171875 0 L 18.875 0 L 22.484375 -17.15625 C 22.578125 -17.726562 22.6875 -18.3125 22.8125 -18.90625 C 22.945312 -19.5 23.015625 -20.035156 23.015625 -20.515625 C 23.015625 -21.171875 22.847656 -21.707031 22.515625 -22.125 C 22.191406 -22.539062 21.703125 -22.75 21.046875 -22.75 C 20.253906 -22.75 19.492188 -22.460938 18.765625 -21.890625 C 18.046875 -21.328125 17.488281 -20.847656 17.09375 -20.453125 L 12.75 0 L -0.65625 0 L 5.328125 -28.265625 L 16.046875 -28.265625 L 17.21875 -24.0625 Z M 17.625 -24.0625 "/></g></g></g><g fill="#006838" fill-opacity="1"><g transform="translate(193.903601, 245.015081)"><g><path d="M 12.6875 0 L -0.65625 0 L 5.328125 -28.265625 L 18.796875 -28.265625 Z M 20.515625 -36.890625 C 20.515625 -35.878906 20.304688 -35 19.890625 -34.25 C 19.472656 -33.507812 18.921875 -32.875 18.234375 -32.34375 C 17.554688 -31.820312 16.78125 -31.425781 15.90625 -31.15625 C 15.03125 -30.894531 14.132812 -30.765625 13.21875 -30.765625 C 11.457031 -30.765625 9.984375 -31.179688 8.796875 -32.015625 C 7.617188 -32.847656 7.03125 -34.164062 7.03125 -35.96875 C 7.03125 -36.925781 7.226562 -37.789062 7.625 -38.5625 C 8.019531 -39.332031 8.554688 -39.96875 9.234375 -40.46875 C 9.910156 -40.96875 10.695312 -41.347656 11.59375 -41.609375 C 12.5 -41.878906 13.4375 -42.015625 14.40625 -42.015625 C 16.113281 -42.015625 17.554688 -41.597656 18.734375 -40.765625 C 19.921875 -39.929688 20.515625 -38.640625 20.515625 -36.890625 Z M 20.515625 -36.890625 "/></g></g></g><g fill="#006838" fill-opacity="1"><g transform="translate(213.167556, 245.015081)"><g><path d="M 5.328125 -28.265625 L 16.046875 -28.265625 L 17.03125 -23.34375 L 17.484375 -23.34375 C 18.492188 -24.914062 19.785156 -26.25 21.359375 -27.34375 C 22.941406 -28.445312 25.023438 -29 27.609375 -29 C 27.785156 -29 28.0625 -28.988281 28.4375 -28.96875 C 28.8125 -28.945312 29.226562 -28.878906 29.6875 -28.765625 C 30.144531 -28.648438 30.625 -28.492188 31.125 -28.296875 C 31.632812 -28.109375 32.128906 -27.835938 32.609375 -27.484375 L 29.71875 -13.9375 L 22.546875 -13.9375 C 22.460938 -16.65625 22.222656 -18.550781 21.828125 -19.625 C 21.429688 -20.695312 20.796875 -21.234375 19.921875 -21.234375 C 19.484375 -21.234375 19.007812 -21.132812 18.5 -20.9375 C 18 -20.738281 17.488281 -20.3125 16.96875 -19.65625 L 12.75 0 L -0.65625 0 Z M 5.328125 -28.265625 "/></g></g></g><g fill="#006838" fill-opacity="1"><g transform="translate(244.923506, 245.015081)"><g><path d="M 14.328125 -13.21875 C 14.160156 -12.25 14.039062 -11.328125 13.96875 -10.453125 C 13.90625 -9.578125 13.875 -8.789062 13.875 -8.09375 C 13.875 -7.695312 13.894531 -7.253906 13.9375 -6.765625 C 13.976562 -6.285156 14.078125 -5.835938 14.234375 -5.421875 C 14.390625 -5.003906 14.609375 -4.648438 14.890625 -4.359375 C 15.171875 -4.078125 15.578125 -3.9375 16.109375 -3.9375 C 16.503906 -3.9375 16.953125 -4.066406 17.453125 -4.328125 C 17.960938 -4.597656 18.46875 -4.972656 18.96875 -5.453125 C 19.46875 -5.941406 19.945312 -6.535156 20.40625 -7.234375 C 20.875 -7.929688 21.238281 -8.71875 21.5 -9.59375 L 32.28125 -9.59375 L 30.578125 -2.5625 C 29.703125 -1.988281 28.691406 -1.503906 27.546875 -1.109375 C 26.410156 -0.722656 25.207031 -0.40625 23.9375 -0.15625 C 22.664062 0.0820312 21.367188 0.253906 20.046875 0.359375 C 18.734375 0.472656 17.488281 0.53125 16.3125 0.53125 C 14.113281 0.53125 12.070312 0.332031 10.1875 -0.0625 C 8.300781 -0.457031 6.65625 -1.132812 5.25 -2.09375 C 3.851562 -3.0625 2.75 -4.34375 1.9375 -5.9375 C 1.125 -7.539062 0.71875 -9.53125 0.71875 -11.90625 C 0.71875 -14.050781 1.054688 -16.148438 1.734375 -18.203125 C 2.421875 -20.265625 3.5625 -22.097656 5.15625 -23.703125 C 6.757812 -25.304688 8.910156 -26.585938 11.609375 -27.546875 C 14.304688 -28.515625 17.671875 -29 21.703125 -29 C 26.078125 -29 29.367188 -28.316406 31.578125 -26.953125 C 33.796875 -25.597656 34.90625 -23.472656 34.90625 -20.578125 C 34.90625 -19.390625 34.726562 -18.101562 34.375 -16.71875 C 34.03125 -15.34375 33.507812 -14.175781 32.8125 -13.21875 Z M 23.078125 -21.046875 C 23.078125 -22.398438 22.859375 -23.316406 22.421875 -23.796875 C 21.984375 -24.285156 21.457031 -24.53125 20.84375 -24.53125 C 20.144531 -24.53125 19.5 -24.296875 18.90625 -23.828125 C 18.3125 -23.367188 17.769531 -22.753906 17.28125 -21.984375 C 16.800781 -21.222656 16.363281 -20.347656 15.96875 -19.359375 C 15.582031 -18.378906 15.253906 -17.335938 14.984375 -16.234375 L 22.484375 -16.234375 C 22.578125 -16.765625 22.664062 -17.316406 22.75 -17.890625 C 22.832031 -18.367188 22.90625 -18.890625 22.96875 -19.453125 C 23.039062 -20.023438 23.078125 -20.554688 23.078125 -21.046875 Z M 23.078125 -21.046875 "/></g></g></g><g clip-path="url(#1ccf5e538d)"><path fill="#006838" d="M 299.789062 232.320312 L 298.941406 232.320312 L 297.707031 233.464844 L 298.554688 233.464844 Z M 299.789062 232.320312 " fill-opacity="1" fill-rule="nonzero"/></g><g clip-path="url(#e099a40cca)"><path fill="#006838" d="M 304.886719 227.28125 L 299.351562 222.144531 L 298.945312 221.746094 C 298.890625 221.691406 298.820312 221.667969 298.746094 221.671875 C 298.675781 221.667969 298.605469 221.691406 298.546875 221.746094 L 298.140625 222.144531 L 295.855469 224.265625 L 295.855469 223.816406 C 295.855469 223.722656 295.78125 223.648438 295.691406 223.648438 L 294.253906 223.648438 C 294.164062 223.648438 294.089844 223.722656 294.089844 223.816406 L 294.089844 225.90625 L 292.609375 227.28125 C 292.484375 227.398438 292.410156 227.5625 292.410156 227.734375 L 292.410156 228.347656 C 292.410156 228.453125 292.496094 228.535156 292.601562 228.535156 L 294.089844 228.535156 L 294.089844 232.359375 C 294.089844 232.96875 294.585938 233.464844 295.199219 233.464844 L 302.296875 233.464844 C 302.910156 233.464844 303.40625 232.96875 303.40625 232.359375 L 303.40625 228.535156 L 304.894531 228.535156 C 305 228.535156 305.082031 228.453125 305.082031 228.347656 L 305.082031 227.734375 C 305.085938 227.5625 305.011719 227.398438 304.886719 227.28125 Z M 302.199219 231.890625 C 302.199219 232.128906 302.007812 232.320312 301.769531 232.320312 L 295.722656 232.320312 C 295.488281 232.320312 295.292969 232.128906 295.292969 231.890625 L 295.292969 229.691406 C 296.066406 230.746094 297.296875 231.375 298.601562 231.375 L 298.613281 231.375 C 298.773438 231.371094 298.828125 231.246094 298.839844 231.207031 C 298.867188 231.128906 298.859375 231.019531 298.765625 230.941406 L 298.425781 230.6875 C 298.355469 230.632812 298.332031 230.527344 298.382812 230.453125 C 298.4375 230.371094 298.546875 230.351562 298.625 230.410156 L 298.957031 230.664062 C 298.964844 230.667969 298.96875 230.671875 298.972656 230.675781 L 299.542969 231.101562 C 299.664062 231.191406 299.828125 231.199219 299.957031 231.105469 C 300.019531 231.058594 300.066406 230.992188 300.085938 230.914062 C 300.121094 230.777344 300.070312 230.636719 299.960938 230.550781 L 299.277344 230.039062 C 299.210938 229.988281 299.183594 229.898438 299.222656 229.824219 C 299.269531 229.726562 299.390625 229.699219 299.476562 229.761719 L 300.164062 230.28125 L 300.546875 230.570312 C 300.667969 230.660156 300.835938 230.675781 300.960938 230.589844 C 301.058594 230.523438 301.113281 230.417969 301.113281 230.300781 C 301.113281 230.191406 301.0625 230.09375 300.976562 230.027344 L 300.113281 229.378906 C 300.046875 229.328125 300.023438 229.238281 300.058594 229.167969 C 300.105469 229.066406 300.230469 229.042969 300.3125 229.105469 L 301.179688 229.757812 C 301.179688 229.757812 301.179688 229.757812 301.183594 229.757812 L 301.308594 229.855469 C 301.457031 229.964844 301.679688 229.945312 301.796875 229.804688 C 301.855469 229.730469 301.882812 229.640625 301.871094 229.550781 C 301.859375 229.449219 301.804688 229.359375 301.722656 229.300781 L 299.382812 227.539062 C 299.179688 227.386719 298.894531 227.386719 298.691406 227.539062 L 298.03125 228.035156 C 297.613281 228.347656 297.03125 228.347656 296.613281 228.03125 C 296.492188 227.941406 296.425781 227.804688 296.429688 227.65625 C 296.4375 227.511719 296.511719 227.382812 296.625 227.296875 L 297.757812 226.445312 C 297.847656 226.378906 297.773438 226.238281 297.667969 226.277344 L 295.804688 226.925781 C 295.640625 226.984375 295.46875 227.015625 295.292969 227.019531 L 295.292969 226.949219 L 298.605469 223.878906 C 298.683594 223.800781 298.808594 223.800781 298.890625 223.878906 L 302.199219 226.949219 Z M 302.199219 231.890625 " fill-opacity="1" fill-rule="nonzero"/></g><g clip-path="url(#0e4b50ee8f)"><path fill="#8cc342" d="M 304.886719 227.28125 L 299.914062 222.664062 L 298.605469 223.878906 C 298.683594 223.800781 298.808594 223.800781 298.890625 223.878906 L 302.199219 226.949219 L 302.199219 226.964844 L 302.03125 226.996094 C 301.730469 227.050781 301.421875 227.019531 301.136719 226.910156 L 299.382812 226.238281 C 299.0625 226.113281 298.699219 226.164062 298.425781 226.371094 L 296.816406 227.578125 C 296.785156 227.597656 296.769531 227.632812 296.769531 227.667969 C 296.769531 227.707031 296.785156 227.738281 296.816406 227.761719 C 297.113281 227.984375 297.53125 227.984375 297.828125 227.761719 L 298.488281 227.269531 C 298.8125 227.027344 299.261719 227.027344 299.585938 227.269531 L 301.925781 229.027344 C 302.066406 229.132812 302.167969 229.285156 302.199219 229.460938 L 302.199219 231.890625 C 302.199219 232.128906 302.007812 232.320312 301.769531 232.320312 L 299.246094 232.320312 L 298.011719 233.464844 L 302.296875 233.464844 C 302.910156 233.464844 303.40625 232.96875 303.40625 232.359375 L 303.40625 228.535156 L 304.894531 228.535156 C 305 228.535156 305.085938 228.453125 305.085938 228.347656 L 305.085938 227.734375 C 305.085938 227.5625 305.011719 227.398438 304.886719 227.28125 Z M 304.886719 227.28125 " fill-opacity="1" fill-rule="nonzero"/><path fill="#8cc342" d="M 304.886719 227.28125 L 299.914062 222.664062 L 298.605469 223.878906 C 298.683594 223.800781 298.808594 223.800781 298.890625 223.878906 L 302.199219 226.949219 L 302.199219 226.964844 L 302.03125 226.996094 C 301.730469 227.050781 301.421875 227.019531 301.136719 226.910156 L 299.382812 226.238281 C 299.0625 226.113281 298.699219 226.164062 298.425781 226.371094 L 296.816406 227.578125 C 296.785156 227.597656 296.769531 227.632812 296.769531 227.667969 C 296.769531 227.707031 296.785156 227.738281 296.816406 227.761719 C 297.113281 227.984375 297.53125 227.984375 297.828125 227.761719 L 298.488281 227.269531 C 298.8125 227.027344 299.261719 227.027344 299.585938 227.269531 L 301.925781 229.027344 C 302.066406 229.132812 302.167969 229.285156 302.199219 229.460938 L 302.199219 231.890625 C 302.199219 232.128906 302.007812 232.320312 301.769531 232.320312 L 299.246094 232.320312 L 298.011719 233.464844 L 302.296875 233.464844 C 302.910156 233.464844 303.40625 232.96875 303.40625 232.359375 L 303.40625 228.535156 L 304.894531 228.535156 C 305 228.535156 305.085938 228.453125 305.085938 228.347656 L 305.085938 227.734375 C 305.085938 227.5625 305.011719 227.398438 304.886719 227.28125 Z M 304.886719 227.28125 " fill-opacity="1" fill-rule="nonzero"/></g><path fill="#8cc342" d="M 298.90625 223.597656 L 298.605469 223.878906 C 298.683594 223.800781 298.808594 223.800781 298.890625 223.878906 L 299.171875 224.136719 L 300.335938 223.054688 L 299.914062 222.664062 Z M 298.90625 223.597656 " fill-opacity="1" fill-rule="nonzero"/><g clip-path="url(#77237a897b)"><path fill="#006838" d="M 304.742188 239.410156 C 305.371094 238.917969 305.972656 238.402344 306.5625 237.863281 C 306.007812 238.4375 305.40625 238.960938 304.742188 239.410156 Z M 319.703125 221.875 C 319.867188 219.652344 319.132812 217.167969 317.324219 215.867188 C 318 218.40625 317.671875 221.136719 316.785156 223.613281 C 316.523438 224.355469 316.210938 225.074219 315.859375 225.78125 L 315.859375 235.347656 C 315.859375 235.816406 315.660156 236.242188 315.34375 236.542969 L 319.003906 242.433594 C 319.382812 243.042969 319.015625 243.902344 318.375 243.902344 L 295.914062 243.902344 C 295.734375 244.007812 295.554688 244.113281 295.367188 244.214844 L 318.3125 244.214844 C 317.628906 244.664062 316.828125 244.902344 316.007812 244.902344 L 294.054688 244.902344 C 291.277344 246.269531 288.1875 247.171875 285.058594 246.945312 C 284.640625 246.914062 284.234375 246.84375 283.847656 246.703125 C 281.015625 245.664062 284.222656 239.167969 285.445312 237.089844 C 286.304688 235.625 287.417969 234.339844 288.742188 232.929688 L 288.742188 220.59375 C 288.742188 219.683594 289.480469 218.945312 290.394531 218.945312 L 311.527344 218.945312 C 311.226562 218.242188 310.375 217.714844 309.667969 218.035156 C 310.371094 217.648438 311.089844 217.253906 311.890625 217.125 C 312.6875 217 313.589844 217.191406 314.101562 217.800781 C 314.382812 218.140625 314.507812 218.546875 314.535156 218.976562 C 314.875 219.042969 315.175781 219.214844 315.40625 219.460938 C 315.480469 218.449219 315.34375 217.40625 314.621094 216.746094 C 313.71875 215.917969 312.304688 216.046875 311.136719 216.398438 C 309.851562 216.78125 308.628906 217.375 307.53125 218.148438 C 307.914062 217.757812 307.710938 217.777344 308.1875 217.511719 C 308.1875 217.484375 308.1875 217.460938 308.191406 217.433594 C 310.394531 215.066406 313.339844 213.390625 316.523438 212.808594 C 317.621094 212.609375 318.800781 212.539062 319.808594 213.011719 C 321.050781 213.589844 321.820312 214.917969 322.019531 216.273438 C 322.222656 217.628906 321.925781 219.011719 321.503906 220.308594 C 320.847656 222.324219 319.878906 224.230469 318.640625 225.949219 C 319.296875 224.304688 319.605469 223.222656 319.707031 221.875 Z M 314.625 221.390625 C 314.625 221.082031 314.507812 220.800781 314.324219 220.585938 C 314.316406 220.609375 314.308594 220.636719 314.300781 220.660156 C 312.816406 226.09375 309.777344 231.015625 306.023438 235.3125 L 308.613281 235.3125 C 308.84375 234.980469 309.070312 234.640625 309.292969 234.300781 C 311.535156 230.886719 313.5 227.21875 314.625 223.308594 Z M 288.136719 241.300781 C 287.851562 241.757812 288.128906 242.40625 288.609375 242.40625 L 295.121094 242.40625 C 296.097656 241.753906 297.023438 241.023438 297.921875 240.269531 C 299.148438 239.234375 300.335938 238.140625 301.46875 237 L 291.050781 237 C 290.828125 237.105469 290.636719 237.277344 290.503906 237.496094 L 288.140625 241.300781 Z M 289.894531 234.082031 C 289.894531 234.765625 290.445312 235.3125 291.125 235.3125 L 303.0625 235.3125 C 306.75 231.230469 309.710938 226.554688 311.363281 221.386719 C 311.496094 220.988281 311.609375 220.574219 311.65625 220.15625 L 291.125 220.15625 C 290.445312 220.15625 289.894531 220.707031 289.894531 221.386719 Z M 288.742188 235.347656 L 288.742188 233.484375 C 286 236.6875 282.835938 244.90625 286.164062 244.925781 C 286.816406 244.929688 287.46875 244.917969 288.117188 244.875 C 287.464844 244.804688 286.835938 244.578125 286.285156 244.21875 L 291.695312 244.21875 C 291.960938 244.128906 292.21875 244.023438 292.476562 243.90625 L 286.21875 243.90625 C 285.578125 243.90625 285.214844 243.046875 285.589844 242.4375 L 289.25 236.542969 C 288.933594 236.242188 288.738281 235.816406 288.738281 235.347656 Z M 314.015625 237.496094 C 313.882812 237.277344 313.691406 237.105469 313.46875 237 L 307.472656 237 C 307.175781 237.292969 306.871094 237.582031 306.5625 237.863281 C 306.835938 237.585938 307.089844 237.296875 307.339844 237 L 304.492188 237 C 304.476562 237.019531 304.457031 237.03125 304.441406 237.050781 C 303.363281 238.183594 301.132812 240.371094 298.230469 242.40625 L 315.910156 242.40625 C 316.390625 242.40625 316.667969 241.757812 316.382812 241.300781 L 314.019531 237.492188 Z M 314.625 227.996094 C 314.097656 228.84375 313.53125 229.667969 312.957031 230.476562 C 311.757812 232.15625 310.480469 233.78125 309.09375 235.3125 L 313.394531 235.3125 C 314.074219 235.3125 314.625 234.761719 314.625 234.082031 Z M 288.742188 231.757812 L 288.742188 229.953125 C 286.582031 232.335938 284.820312 235.179688 283.679688 238.1875 C 285.171875 235.898438 286.734375 233.617188 288.742188 231.757812 Z M 282.65625 248.808594 C 280.605469 248.242188 281.410156 244.742188 281.628906 243.988281 C 281.785156 243.445312 281.886719 243.308594 282.183594 242.40625 C 281.140625 244.21875 280.695312 246.421875 280.839844 248.496094 C 280.871094 248.960938 280.957031 249.472656 281.320312 249.765625 C 281.601562 250 281.996094 250.042969 282.363281 250.054688 C 284.304688 250.109375 286.199219 249.511719 288.019531 248.84375 C 286.238281 249.195312 284.410156 249.289062 282.65625 248.804688 Z M 282.65625 248.808594 " fill-opacity="1" fill-rule="nonzero"/></g></svg>